<svg width="116" height="111" viewBox="0 0 116 111" fill="none" xmlns="http://www.w3.org/2000/svg">
<g clip-path="url(#clip0_31_252)">
<path d="M0 44.0566L57.5205 79.0944L115.041 44.0566V36.6782L57.5205 0.652161L0 36.2144V44.0566Z" fill="#EB3D00"/>
<path d="M25.0059 10.2083L32.4429 14.0604L39.8799 10.2083L47.3169 14.0604L54.754 10.2083L62.191 14.0604L69.628 10.2083L77.0651 14.0604L84.5021 10.2083V101.864L77.0651 96.7286L69.628 101.864L62.191 96.7286L54.754 101.864L47.3169 96.7286L39.8799 101.864L32.4429 96.7286L25.0059 101.864V10.2083Z" fill="#FFD8CB"/>
<path d="M33.5708 35.0423H75.6473M75.9368 47.233H33.6458" stroke="#EB3D00" stroke-width="4"/>
<path d="M0 35.9598L57.5205 70.8055L115.041 35.9598V101.915C115.041 106.333 111.459 109.915 107.041 109.915H8.00001C3.58173 109.915 0 106.333 0 101.915V35.9598Z" fill="#FFD8CB"/>
<path d="M0 35.9598L57.5205 70.8055L115.041 35.9598V43.3382L57.5205 79.3643L0 43.802V35.9598Z" fill="#FF7E53"/>
</g>
<defs>
<clipPath id="clip0_31_252">
<rect width="116" height="110" fill="white" transform="translate(0 0.652161)"/>
</clipPath>
</defs>
</svg>
