<svg width="90" height="153" viewBox="0 0 90 153" fill="none" xmlns="http://www.w3.org/2000/svg">
<g clip-path="url(#clip0_31_244)">
<path d="M71.0046 55.4454V11.4454C71.0046 5.75532 66.9546 1.14532 61.9646 1.14532H19.4646C14.4746 1.14532 10.4346 5.75532 10.4346 11.4454V110.135C10.4346 114.675 13.0046 118.525 16.5746 119.895C17.4846 120.245 18.4546 120.435 19.4746 120.435H61.9746C67.7011 120.435 71.0146 115.825 71.0146 110.125V90.8054V83.5654L67.1846 70.7454C51.6946 70.7454 53.9946 55.4454 53.9946 55.4454H71.0046Z" fill="#2E1AAE"/>
<path d="M71.0046 14.2752H10.4346V106.925H71.0046V14.2752Z" fill="#6A56E6"/>
<path d="M17.0415 25.7127L22.8336 28.7127L28.6257 25.7127L34.4177 28.7127L40.2098 25.7127L46.0019 28.7127L51.794 25.7127L57.586 28.7127L63.3781 25.7127V97.0961L57.586 93.0961L51.794 97.0961L46.0019 93.0961L40.2098 97.0961L34.4177 93.0961L28.6257 97.0961L22.8336 93.0961L17.0415 97.0961V25.7127Z" fill="#E1DDFA"/>
<path d="M21.3744 88.845C20.3744 91.845 17.1244 93.475 14.1244 92.475L3.9644 89.095C0.9544 88.095 -0.665605 84.845 0.334395 81.845L0.81439 80.395C1.81439 77.385 5.06439 75.765 8.06439 76.765L18.2244 80.145C21.2344 81.145 22.8544 84.395 21.8544 87.395L21.3744 88.845ZM20.2544 72.265C19.2544 75.275 16.0144 76.905 13.0044 75.905L3.9344 72.895C0.924401 71.895 -0.705599 68.655 0.294401 65.645L0.774397 64.195C1.7744 61.185 5.0244 59.555 8.0244 60.555L17.0944 63.565C20.1044 64.565 21.7344 67.805 20.7344 70.815L20.2544 72.265ZM20.3844 106.185C19.1444 109.095 15.7744 110.445 12.8544 109.205L4.5944 105.675C1.6844 104.435 0.32439 101.065 1.56439 98.145L2.1644 96.735C3.4044 93.825 6.77439 92.465 9.6944 93.715L17.9544 97.235C20.8644 98.475 22.2244 101.845 20.9744 104.765L20.3844 106.185Z" fill="#EDECF5"/>
<path d="M20.6896 55.8428C19.4496 58.7528 16.0796 60.1028 13.1596 58.8628L4.89957 55.3328C1.98957 54.0928 0.629559 50.7228 1.86956 47.8028L2.46957 46.3928C3.70957 43.4828 7.07956 42.1228 9.99956 43.3728L18.2596 46.8928C21.1696 48.1328 22.5296 51.5028 21.2796 54.4228L20.6896 55.8428Z" fill="#EDECF5"/>
<path d="M79.5045 63.4555H71.0045L50.1747 63.4554C50.1747 63.4554 51.6845 76.8755 67.1745 76.8755L71.0045 88.1155V94.4555V110.669C71.0045 115.659 66.9545 120.435 61.9645 120.435H19.4645C18.4545 120.435 17.4745 120.265 16.5645 119.955C21.0245 146.145 44.2145 146.845 44.2145 146.845V152.575H53.8445H59.3345H89.5345V90.6355L79.5045 63.4555Z" fill="#EDECF5"/>
<path d="M29.052 58.688L36.7211 66.3571L54.5466 48.5316" stroke="#2E1AAE" stroke-width="4"/>
</g>
<defs>
<clipPath id="clip0_31_244">
<rect width="90" height="152" fill="white" transform="translate(0 0.652161)"/>
</clipPath>
</defs>
</svg>
