<svg width="124" height="143" viewBox="0 0 124 143" fill="none" xmlns="http://www.w3.org/2000/svg">
<g clip-path="url(#clip0_31_258)">
<path d="M33.6731 86.2874V126.578C33.6731 131.788 37.3817 136.009 41.951 136.009H80.868C85.4373 136.009 89.1367 131.788 89.1367 126.578V36.2081C89.1367 32.0509 86.7834 28.5254 83.5144 27.2709C82.6811 26.9504 81.7929 26.7765 80.8589 26.7765H41.9419C36.6981 26.7765 33.664 30.9978 33.664 36.2173V53.9085V60.5381L37.1711 72.2773C51.3552 72.2773 49.2491 86.2874 49.2491 86.2874H33.6731Z" fill="#FFD47E"/>
<path d="M33.6731 123.986H89.1367V39.1476H33.6731V123.986Z" fill="#FFA400"/>
<path d="M83.0864 113.513L77.7827 110.766L72.4789 113.513L67.1751 110.766L61.8713 113.513L56.5676 110.766L51.2638 113.513L45.96 110.766L40.6563 113.513V48.1477L45.96 51.8105L51.2638 48.1477L56.5676 51.8105L61.8714 48.1477L67.1751 51.8105L72.4789 48.1477L77.7827 51.8105L83.0864 48.1477V113.513Z" fill="#FFF2D8"/>
<path d="M46.646 75.1341H76.8883M77.0964 86.2971H46.6999" stroke="#FFA400" stroke-width="4"/>
<path d="M79.119 55.7032C80.0347 52.9561 83.0107 51.4635 85.7578 52.3792L95.0612 55.4743C97.8175 56.39 99.3009 59.366 98.3852 62.1131L97.9457 63.4408C97.03 66.1971 94.054 67.6805 91.3069 66.7648L82.0034 63.6698C79.2472 62.7541 77.7638 59.7781 78.6795 57.031L79.119 55.7032ZM80.1446 70.8854C81.0603 68.1292 84.0271 66.6366 86.7834 67.5523L95.0887 70.3085C97.8449 71.2242 99.3375 74.1911 98.4218 76.9473L97.9823 78.2751C97.0666 81.0313 94.0906 82.5239 91.3435 81.6082L83.0382 78.852C80.2819 77.9363 78.7893 74.9694 79.705 72.2132L80.1446 70.8854ZM80.0255 39.8251C81.161 37.1604 84.2469 35.9242 86.9207 37.0597L94.4843 40.2921C97.149 41.4275 98.3944 44.5134 97.2589 47.1873L96.7095 48.4784C95.574 51.1431 92.4881 52.3884 89.8143 51.2438L82.2507 48.0205C79.586 46.8851 78.3407 43.7992 79.4853 41.1254L80.0255 39.8251Z" fill="#EDECF5"/>
<path d="M79.7458 85.9232C80.8813 83.2585 83.9672 82.0223 86.641 83.1578L94.2046 86.3902C96.8693 87.5256 98.1147 90.6115 96.9792 93.2854L96.4298 94.5765C95.2943 97.2412 92.2084 98.4865 89.5346 97.3419L81.9709 94.1186C79.3063 92.9832 78.0609 89.8973 79.2056 87.2235L79.7458 85.9232Z" fill="#EDECF5"/>
<path d="M25.8896 78.9524H33.673L52.7468 78.9525C52.7468 78.9525 51.3643 66.6638 37.1802 66.6638L33.673 56.3714V50.5659V35.7191C33.673 31.1498 37.3816 26.7762 41.9509 26.7762H80.8679C81.7928 26.7762 82.6902 26.9319 83.5234 27.2157C79.4394 3.23365 58.2045 2.59267 58.2045 2.59267L58.151 0.652118L49.3328 0.652118L44.3057 0.652117L16.6517 0.652115L16.7052 54.0639L25.8896 78.9524Z" fill="#EDECF5"/>
<path d="M65.7484 31.6585H56.8651C56.0956 31.6585 55.4717 32.2823 55.4717 33.0519V33.0519C55.4717 33.8215 56.0956 34.4453 56.8651 34.4453H65.7484C66.5179 34.4453 67.1418 33.8215 67.1418 33.0519V33.0519C67.1418 32.2823 66.5179 31.6585 65.7484 31.6585Z" fill="#FFA400"/>
<path d="M121.307 110.302V131.94C121.307 136.358 117.725 139.94 113.307 139.94H91.6695M121.307 51.0267V29.389C121.307 24.9707 117.725 21.389 113.307 21.389H91.6695M2.75635 51.0267V29.389C2.75635 24.9707 6.33807 21.389 10.7563 21.389H32.3941M2.75635 110.302V131.94C2.75635 136.358 6.33808 139.94 10.7564 139.94H32.3941" stroke="#FFA400" stroke-width="4"/>
</g>
<defs>
<clipPath id="clip0_31_258">
<rect width="124" height="142" fill="white" transform="translate(0 0.652161)"/>
</clipPath>
</defs>
</svg>
