<svg width="200" height="200" viewBox="0 0 200 200" fill="none" xmlns="http://www.w3.org/2000/svg">
<g clip-path="url(#clip0_31_268)">
<path d="M200 0H0V200H200V0Z" fill="#97A3E4"/>
<path d="M57.7769 74.2803C57.7769 74.2803 34.9338 77.5628 32.1814 94.3786C32.1814 94.3786 15.6997 94.7648 14.9679 109.641C14.9679 109.641 3.06822 111.8 3.43411 121.937C3.43411 121.937 63.5231 115.232 79.9715 115.223L57.7769 74.2803Z" fill="#3D6567"/>
<path d="M0 54.3609L93.9835 54.1445C93.9835 54.1445 84.6451 27.2203 57.5443 29.0537C57.5443 29.0537 44.5469 5.04749 13.9703 5.59748C13.9703 5.59748 5.07255 6.3308 0 8.53071V54.3609Z" fill="#E1DDFA" fill-opacity="0.6"/>
<path d="M138.951 87.7389C138.951 87.7389 162.069 88.7138 163.889 106.446C163.889 106.446 174.326 111.471 174.6 120.379C174.875 129.287 175.698 123.787 174.6 125.846C174.6 125.846 140.747 120.046 123.75 119.896L129.147 103.938L138.951 87.7389Z" fill="#3D6567"/>
<path d="M0.227234 114.37C0.227234 114.37 38.0863 106.738 75.4652 107.104L76.4215 108.812C76.4215 108.812 14.5385 122.616 0.227234 132.182V114.37Z" fill="#587B65"/>
<path d="M0.274963 127.328C0.274963 127.328 92.6203 87.5715 199.851 117.712V200H0.274963V127.328Z" fill="#809E62"/>
<path d="M199.706 171.006C199.706 171.006 120.128 184.334 87.8215 185.275L90.1665 199.992C90.1665 199.992 174.288 186.609 199.851 175.968L199.706 171.006Z" fill="#FFD47E"/>
<path d="M0.227234 122.755C0.227234 122.755 26.9932 120.17 35.8911 151.502C35.8911 151.502 83.7311 152.911 92.3211 199.992H0.275045L0.227234 122.755Z" fill="#3D6567"/>
<path d="M143.171 140.903C143.171 134.436 124.527 129.195 101.526 129.195C78.5246 129.195 59.8809 134.436 59.8809 140.903C59.8809 143.361 62.5752 145.636 67.1654 147.519H67.0989C89.4931 156.835 101.484 168.568 101.484 168.568L101.584 168.46C103.122 166.877 113.434 156.877 135.728 147.569C140.426 145.686 143.171 143.386 143.171 140.903Z" fill="#587B65"/>
<path d="M125.6 73.3474L199.851 72.8802V59.098C199.851 59.098 191.512 39.6977 172.105 39.7311C152.695 39.7645 148.642 55.1648 148.642 55.1648C148.642 55.1648 127.828 53.5315 125.6 73.3474Z" fill="#EDE5D6"/>
<path d="M143.171 69.9888C143.171 46.9397 124.527 28.2572 101.526 28.2572C78.5246 28.2572 59.8809 46.9397 59.8809 69.9888C59.8809 78.7385 62.5752 86.8548 67.1654 93.5628H67.0989C89.4931 126.77 101.484 168.568 101.484 168.568L101.584 168.192C103.122 162.56 113.434 126.92 135.728 93.7628C140.426 87.0214 143.171 78.83 143.171 69.9888Z" fill="#A5BCD1"/>
<path d="M141.507 69.9888C141.507 46.9397 122.864 28.2572 99.8626 28.2572C76.8615 28.2572 58.2178 46.9397 58.2178 69.9888C58.2178 78.7385 60.912 86.8548 65.5023 93.5628H65.4357C87.8298 126.77 99.8211 168.568 99.8211 168.568L99.9208 168.192C101.459 162.56 111.771 126.92 134.065 93.7628C138.763 87.0214 141.507 78.83 141.507 69.9888Z" fill="#EDE5D5"/>
<path d="M101.534 88.3628C111.661 88.3628 119.87 80.1363 119.87 69.9886C119.87 59.8408 111.661 51.6143 101.534 51.6143C91.4075 51.6143 83.1983 59.8408 83.1983 69.9886C83.1983 80.1363 91.4075 88.3628 101.534 88.3628Z" fill="#DE5327"/>
<path d="M101.534 80.8718C107.532 80.8718 112.394 75.9994 112.394 69.9889C112.394 63.9785 107.532 59.106 101.534 59.106C95.5361 59.106 90.6738 63.9785 90.6738 69.9889C90.6738 75.9994 95.5361 80.8718 101.534 80.8718Z" fill="#97A3E4"/>
<path d="M199.918 190.225H175.838C175.838 190.225 162.974 187.926 162.974 178.557C162.974 169.188 173.96 165.289 173.96 165.289C173.96 165.289 175.346 152.693 190.017 151.833C195.817 151.868 199.035 154.792 199.918 156.251V190.225Z" fill="#3D6467"/>
<path d="M131.612 26.0489L200 25.5935V0H162.729C162.729 0 157.366 1.11665 152.767 10.4996C152.759 10.4996 132.984 12.1328 131.612 26.0489Z" fill="#EDE5D6"/>
<path d="M101.471 168.537L99.8366 168.552C99.8751 168.212 100.499 166.109 100.806 165.1L102.296 165.686L101.471 168.537Z" fill="#A5BCD1"/>
</g>
<defs>
<clipPath id="clip0_31_268">
<rect width="200" height="200" fill="white"/>
</clipPath>
</defs>
</svg>
