<svg width="33" height="38" viewBox="0 0 33 38" fill="none" xmlns="http://www.w3.org/2000/svg">
<path d="M14.4446 37.4872C11.5445 37.4872 9.05618 37.0058 6.97971 36.043C4.90325 35.0685 3.372 33.7287 2.38596 32.0234C1.41153 30.3182 1.11572 28.3577 1.49854 26.142H11.1036C10.976 26.8265 11.063 27.4413 11.3647 27.9865C11.6779 28.5201 12.1535 28.9377 12.7915 29.2393C13.4295 29.541 14.1661 29.6918 15.0014 29.6918C15.999 29.6918 16.898 29.4888 17.6985 29.0827C18.5105 28.6767 19.1717 28.1489 19.6821 27.4993C20.2041 26.8497 20.5232 26.1652 20.6392 25.446C20.7668 24.7036 20.645 24.1004 20.2737 23.6364C19.9025 23.1607 19.3515 22.8127 18.6207 22.5923C17.8899 22.3603 17.0314 22.2443 16.0454 22.2443H12.2173L13.3309 15.5625H16.7414C17.7275 15.5625 18.6323 15.3827 19.4559 15.0231C20.2795 14.6635 20.964 14.1705 21.5092 13.544C22.0544 12.906 22.3908 12.1868 22.5184 11.3864C22.6228 10.7715 22.5706 10.2379 22.3618 9.78551C22.1646 9.32149 21.8108 8.96188 21.3004 8.70667C20.8016 8.45147 20.1403 8.32386 19.3167 8.32386C18.4235 8.32386 17.5651 8.48047 16.7414 8.79368C15.9178 9.10689 15.2276 9.5419 14.6708 10.0987C14.1139 10.6555 13.7833 11.2936 13.6789 12.0128H4.49143C4.85104 9.83191 5.75007 7.90625 7.18852 6.23579C8.62697 4.56534 10.4366 3.2545 12.6175 2.30327C14.81 1.35203 17.2054 0.876419 19.8039 0.876419C22.5184 0.876419 24.8269 1.37524 26.7294 2.37287C28.6318 3.3705 30.0297 4.69294 30.9229 6.3402C31.8161 7.98745 32.1003 9.78551 31.7755 11.7344C31.4275 13.834 30.4821 15.4233 28.9392 16.5021C27.3964 17.581 25.4649 18.219 23.1448 18.4162V18.6946C25.6737 18.9846 27.6284 19.9126 29.0088 21.4787C30.3893 23.0447 30.8939 24.9704 30.5227 27.2557C30.2095 29.2045 29.3104 30.9504 27.8256 32.4933C26.3407 34.0361 24.4383 35.2541 22.1182 36.1474C19.8097 37.0406 17.2519 37.4872 14.4446 37.4872Z" fill="white"/>
</svg>
