<svg width="33" height="37" viewBox="0 0 33 37" fill="none" xmlns="http://www.w3.org/2000/svg">
<path d="M0.800337 37L1.94877 30.0398L17.0873 19.0426C18.0965 18.3118 18.9665 17.6274 19.6974 16.9893C20.4398 16.3397 21.0372 15.6727 21.4896 14.9883C21.942 14.3039 22.2378 13.544 22.377 12.7088C22.5278 11.7924 22.4582 11.0094 22.1682 10.3597C21.8898 9.69851 21.4374 9.19389 20.811 8.84588C20.1846 8.49787 19.4305 8.32386 18.5489 8.32386C17.6557 8.32386 16.8379 8.50367 16.0954 8.86328C15.353 9.22289 14.7324 9.75071 14.2336 10.4467C13.7464 11.1428 13.4215 11.9896 13.2591 12.9872H4.07164C4.48926 10.4815 5.41149 8.32386 6.83833 6.5142C8.27678 4.70455 10.098 3.3125 12.3021 2.33807C14.5178 1.36364 17.0061 0.876419 19.767 0.876419C22.6207 0.876419 25.0219 1.33463 26.9708 2.25107C28.9197 3.15589 30.3291 4.43194 31.1991 6.07919C32.0808 7.72644 32.3302 9.65791 31.9474 11.8736C31.7153 13.2424 31.1991 14.5997 30.3987 15.9453C29.6099 17.291 28.3396 18.7874 26.588 20.4347C24.8479 22.0703 22.435 24.0192 19.3493 26.2812L15.556 29.0653L15.5212 29.2741H29.4417L28.154 37H0.800337Z" fill="white"/>
</svg>
